<svg width="512" height="512" xmlns="http://www.w3.org/2000/svg">

 <g>
  <title>background</title>
  <rect fill="none" id="canvas_background" height="402" width="582" y="-1" x="-1"/>
 </g>
 <g>
  <title>Layer 1</title>
  <g stroke="null" id="svg_9">
   <path stroke="null" fill="#5656ff" id="svg_2" d="m143.2557,75.631582c0.831139,0.148027 1.588776,0.439019 2.263016,0.823635c5.278015,1.772524 11.206242,2.745451 17.600923,2.745451l138.285699,-0.127784c10.041516,0 16.699109,-3.090847 20.955163,-9.730536c1.219852,-1.902838 3.448944,-2.978245 5.748711,-2.978245c1.027616,0 2.069367,0.215081 3.041856,0.665487l41.018406,19.025849l0,-29.996267l-52.47201,-28.516001c-1.386645,-0.75405 -2.415674,-1.935733 -2.893438,-3.322375c-0.319451,-0.928646 -0.856582,-1.880065 -1.478523,-2.980775l-0.309557,-0.550355l-0.999346,-1.589072c-5.84907,-9.334534 -9.295187,-14.20676 -17.71683,-14.20676l-175.25725,0l0,40.965419c0,13.514704 8.664765,24.428189 22.213179,29.772329z"/>
   <polygon stroke="null" fill="#5656ff" id="svg_3" points="299.3543492451972,383.3371861279011 362.29051792051905,312.92329351976514 336.8036444424324,285.8192585296929 268.26861775392535,364.72631706669927 "/>
   <path stroke="null" fill="#5656ff" id="svg_4" d="m301.410993,90.930196l-138.284286,0.127784c-5.507003,0 -10.772297,-0.604758 -15.72238,-1.719386c-0.508861,4.935486 -0.522996,10.036711 -0.522996,15.999527c0,30.867979 11.938435,70.422718 30.411489,100.768176c15.791641,25.940084 43.12311,56.861202 83.653858,56.861202c30.168367,0 52.997833,-17.443103 66.837428,-32.074966c32.343746,-34.195415 51.324247,-90.010309 44.950768,-131.218644l-42.512477,-19.720436c-6.735336,7.28873 -16.398033,10.976744 -28.811405,10.976744zm-79.10521,44.380153l-26.491849,0c-3.656729,0 -6.623669,-2.654358 -6.623669,-5.928656c0,-3.274298 2.96694,-5.928656 6.623669,-5.928656l26.491849,0c3.658142,0 6.622256,2.654358 6.622256,5.928656c0,3.274298 -2.964113,5.928656 -6.622256,5.928656zm71.179706,69.146146c-9.124154,9.186507 -19.372041,13.846183 -30.460962,13.846183c-18.461746,0 -31.861742,-13.280645 -32.422902,-13.846183c-2.431223,-2.446867 -2.185274,-6.19308 0.549852,-8.369198c2.729472,-2.171057 6.903542,-1.954711 9.334765,0.47824c0.16538,0.163209 10.143288,9.881093 22.536871,9.881093c0.026857,0 0.050886,0 0.076329,0c7.114154,-0.022773 14.004975,-3.342618 20.484467,-9.865911c2.429809,-2.446867 6.615188,-2.668275 9.350314,-0.492157c2.735126,2.174853 2.979662,5.921065 0.551266,8.367932zm41.409946,-75.074802c0,3.273033 -2.964113,5.928656 -6.623669,5.928656l-26.490436,0c-3.658142,0 -6.623669,-2.654358 -6.623669,-5.928656c0,-3.274298 2.965527,-5.928656 6.623669,-5.928656l26.490436,0c3.659556,0.001265 6.623669,2.654358 6.623669,5.928656z"/>
   <polygon stroke="null" fill="#5656ff" id="svg_5" points="170.2097510077565,311.27226712554693 215.44889829899148,383.0120328478515 249.24288673214323,364.35688197240233 189.02630990404396,286.81496938690543 "/>
   <path stroke="null" fill="#5656ff" id="svg_6" d="m216.541524,396.338222c-0.340654,0.187247 -0.699683,0.335274 -1.06578,0.463058c-0.101772,0.035425 -0.203544,0.067055 -0.30673,0.097419c-0.318038,0.096154 -0.64173,0.172065 -0.972489,0.222673c-0.062194,0.011387 -0.121561,0.026569 -0.182342,0.03416c-0.313797,0.040486 -0.633249,0.064524 -0.949873,0.064524c-0.070675,0 -0.139937,-0.010121 -0.210612,-0.011387c-0.089051,-0.00253 -0.178101,-0.010121 -0.267152,-0.016447c-0.394367,-0.025304 -0.78732,-0.07085 -1.173206,-0.160678c-1.744261,-0.401064 -3.229851,-1.423333 -4.116117,-2.825158l-48.265429,-76.542417l-155.283057,29.586347l0,161.016277l92.721472,0l0,-86.548764c0,-3.274298 2.96694,-5.928656 6.623669,-5.928656c3.658142,0 6.623669,2.654358 6.623669,5.928656l0,86.548764l92.759636,0c0.032511,-0.349191 0.089051,-0.700912 0.196477,-1.051369l37.811171,-124.090593l-23.943305,13.21359z"/>
   <path stroke="null" fill="#5656ff" id="svg_7" d="m258.704866,373.266312l-0.175274,-0.10501l-4.014345,2.216604c0.862236,1.324649 1.157658,2.944085 0.671413,4.540748l-39.107352,128.34794l78.681159,0l-39.107352,-128.34794c-0.802869,-2.641706 0.534304,-5.331489 3.05175,-6.652342z"/>
   <path stroke="null" fill="#5656ff" id="svg_8" d="m373.140551,319.762911l-67.24169,75.231685c-0.241709,0.269484 -0.510274,0.507339 -0.791561,0.730012c-0.055127,0.044281 -0.106013,0.087298 -0.162553,0.129049c-0.275633,0.20496 -0.565401,0.388412 -0.86789,0.547825c-0.060781,0.03163 -0.122975,0.058199 -0.183755,0.088563c-0.303903,0.146761 -0.61346,0.277075 -0.934325,0.379555c-0.021203,0.007591 -0.042405,0.017713 -0.067848,0.025304c-0.333586,0.103745 -0.678481,0.174596 -1.027616,0.228998c-0.074916,0.012652 -0.148418,0.025304 -0.223333,0.032895c-0.305316,0.037956 -0.610633,0.064524 -0.915949,0.064524c-0.032511,0 -0.069262,-0.006326 -0.101772,-0.007591c-0.106013,-0.001265 -0.212025,-0.013917 -0.318038,-0.020243c-0.265738,-0.015182 -0.527236,-0.040486 -0.790147,-0.084767c-0.125802,-0.021508 -0.248776,-0.045547 -0.373164,-0.073381c-0.255844,-0.056933 -0.50462,-0.129049 -0.753396,-0.212551c-0.10884,-0.03669 -0.219093,-0.07085 -0.325105,-0.111336c-0.347721,-0.137905 -0.689789,-0.294788 -1.017721,-0.492157l-27.758347,-16.618203l38.884019,127.612868c0.106013,0.350456 0.162553,0.702178 0.196477,1.051369l92.756809,0l0,-86.548764c0,-3.274298 2.965527,-5.928656 6.623669,-5.928656s6.623669,2.654358 6.623669,5.928656l0,86.548764l92.722885,0l0,-148.336595l-133.953316,-40.165823z"/>
  </g>
 </g>
</svg>